<svg width="76" height="74" viewBox="0 0 76 74" fill="none" xmlns="http://www.w3.org/2000/svg">
<path d="M5.52491 0.800003C2.76348 0.800003 0.524902 3.03858 0.524902 5.8V68.675C0.524902 71.4364 2.76348 73.675 5.5249 73.675H70.2733C73.0347 73.675 75.2733 71.4364 75.2733 68.675V5.8C75.2733 3.03858 73.0347 0.800003 70.2733 0.800003H5.52491ZM3.63864 8.91374C3.63864 6.15231 5.87722 3.91374 8.63864 3.91374H67.1572C69.9186 3.91374 72.1572 6.15232 72.1572 8.91374V65.5589C72.1572 68.3204 69.9186 70.5589 67.1572 70.5589H8.63864C5.87721 70.5589 3.63864 68.3204 3.63864 65.5589V8.91374ZM26.4499 42.0679C26.4504 42.068 26.4508 42.0686 26.4506 42.0692L23.9819 51.4C23.9328 51.6686 23.8347 51.7153 23.531 51.7153H18.9574C18.642 51.7153 18.593 51.6172 18.642 51.2645L27.4857 20.2906C27.6445 19.73 27.7403 19.2325 27.7894 17.6861C27.7894 17.4782 27.8992 17.3825 28.058 17.3825H34.5798C34.7877 17.3825 34.8951 17.4315 34.9442 17.6861L44.86 51.3136C44.9208 51.5682 44.86 51.7153 44.6054 51.7153H39.4711C39.2025 51.7153 39.0577 51.6546 39.0086 51.4467L36.6572 42.893C36.5229 42.4044 36.0786 42.0658 35.5719 42.0658H26.4501C26.4489 42.0658 26.4487 42.0676 26.4499 42.0679ZM31.482 37.0062C33.336 37.0062 34.688 35.2627 34.2169 33.4695C33.2476 29.7797 32.0081 25.0663 31.4463 22.398C31.4427 22.3809 31.4279 22.3696 31.4104 22.3696C31.3926 22.3696 31.3774 22.3817 31.3743 22.3993C30.8694 25.1843 29.7848 29.4369 28.7336 33.4385C28.2598 35.242 29.6173 37.0062 31.482 37.0062ZM49.1476 19.695C49.1508 19.695 49.1534 19.6923 49.1534 19.6891C49.1561 17.6861 50.5427 16.5065 52.3419 16.5065C54.241 16.5065 55.5304 17.7959 55.5304 19.695C55.5304 21.7506 54.1919 22.8835 52.2811 22.8835C50.4212 22.8835 49.1442 21.7551 49.1417 19.7009C49.1417 19.6977 49.1443 19.695 49.1476 19.695ZM49.5178 26.7739C49.5115 26.7745 49.5061 26.7695 49.5062 26.7632C49.5094 26.5289 49.6084 26.434 49.8588 26.434H54.7502C55.0305 26.434 55.1263 26.5321 55.1263 26.7984V51.386C55.1263 51.6406 55.0772 51.7387 54.7619 51.7387H49.9429C49.6276 51.7387 49.5295 51.5915 49.5295 51.3369V26.7845C49.5295 26.7782 49.524 26.7733 49.5178 26.7739Z" fill="#FFAB2D"/>
</svg>
