<svg width="49" height="74" viewBox="0 0 49 74" fill="none" xmlns="http://www.w3.org/2000/svg">
<path d="M36.6124 49.3833C43.3203 49.3833 48.7582 43.9455 48.7582 37.2375C48.7582 30.5295 43.3203 25.0917 36.6124 25.0917C29.9044 25.0917 24.4666 30.5295 24.4666 37.2375C24.4666 43.9455 29.9044 49.3833 36.6124 49.3833Z" fill="#19BCFE"/>
<path fill-rule="evenodd" clip-rule="evenodd" d="M12.3209 73.675C15.5422 73.675 18.6315 72.3954 20.9093 70.1176C23.1871 67.8398 24.4667 64.7504 24.4667 61.5292V49.3833H12.3209C9.09961 49.3833 6.01027 50.663 3.73248 52.9408C1.4547 55.2186 0.175049 58.3079 0.175049 61.5292C0.175049 64.7504 1.4547 67.8398 3.73248 70.1176C6.01027 72.3954 9.09961 73.675 12.3209 73.675Z" fill="#09CF83"/>
<path fill-rule="evenodd" clip-rule="evenodd" d="M12.3209 49.3833H24.4667V25.0917H12.3209C9.09961 25.0917 6.01027 26.3713 3.73248 28.6491C1.4547 30.9269 0.175049 34.0162 0.175049 37.2375C0.175049 40.4588 1.4547 43.5481 3.73248 45.8259C6.01027 48.1037 9.09961 49.3833 12.3209 49.3833Z" fill="#A259FF"/>
<path fill-rule="evenodd" clip-rule="evenodd" d="M12.3209 25.0917H24.4667V0.800003H12.3209C9.09961 0.800003 6.01027 2.07965 3.73248 4.35744C1.4547 6.63522 0.175049 9.72456 0.175049 12.9458C0.175049 16.1671 1.4547 19.2565 3.73248 21.5342C6.01027 23.812 9.09961 25.0917 12.3209 25.0917Z" fill="#F24E1E"/>
<path fill-rule="evenodd" clip-rule="evenodd" d="M36.6124 25.0917H24.4666V0.800003H36.6124C39.8337 0.800003 42.923 2.07965 45.2008 4.35744C47.4786 6.63522 48.7582 9.72456 48.7582 12.9458C48.7582 16.1671 47.4786 19.2565 45.2008 21.5342C42.923 23.812 39.8337 25.0917 36.6124 25.0917Z" fill="#FF7262"/>
</svg>
