<svg width="62" height="73" viewBox="0 0 62 73" fill="none" xmlns="http://www.w3.org/2000/svg">
<path d="M5.64253 65.0708L0 0H62L56.3499 65.0605L30.9623 72.2981L5.64253 65.0708Z" fill="#E44F26"/>
<path d="M31.0002 66.7664L51.5162 60.918L56.3426 5.32076H31.0002V66.7664Z" fill="#F1662A"/>
<path d="M30.9997 29.4544H20.7291L20.021 21.2821H30.9997V13.3009H11.5383L11.7242 15.4441L13.6301 37.4356H30.9997V29.4544V29.4544Z" fill="#EBEBEB"/>
<path d="M31.0008 50.1786L30.9656 50.1889L22.3223 47.7901L21.7698 41.4253H13.9778L15.0651 53.9536L30.9656 58.4928L31.0008 58.4825V50.1786Z" fill="#EBEBEB"/>
<path d="M30.9729 29.4548V37.4359H40.5303L39.6313 47.7875L30.9729 50.1888V58.4928L46.886 53.9561L47.0015 52.6082L48.8246 31.5979L49.0154 29.4548H30.9729V29.4548Z" fill="white"/>
<path d="M30.9729 13.3009V21.2821H49.7211L49.8768 19.4902L50.2308 15.4441L50.4166 13.3009H30.9729V13.3009Z" fill="white"/>
</svg>
