<svg width="76" height="74" viewBox="0 0 76 74" fill="none" xmlns="http://www.w3.org/2000/svg">
<path d="M18.6745 19.0499C18.6745 18.863 18.7368 18.7073 18.9859 18.7073C20.948 18.6139 23.7508 18.5516 26.7717 18.5516C35.1804 18.5516 38.8553 23.1608 38.8553 29.078C38.8553 36.8015 33.1872 40.1027 26.3357 40.1027C25.1834 40.1027 24.7786 40.0404 23.9688 40.0404V51.8748C23.9688 52.1239 23.8754 52.2174 23.6263 52.2174H19.0171C18.7679 52.2174 18.6745 52.1239 18.6745 51.8748V19.0499ZM23.9688 35.1821C24.654 35.2443 25.2146 35.2443 26.4292 35.2443C29.9795 35.2443 33.3741 33.9986 33.3741 29.1714C33.3741 25.3097 30.9449 23.3477 26.8652 23.3477C25.6506 23.3477 24.4983 23.4099 23.9688 23.4411V35.1821ZM51.1257 31.5694C48.7277 31.5694 47.9179 32.784 47.9179 33.7806C47.9179 34.8706 48.4785 35.6492 51.6863 37.2998C56.4512 39.6044 57.946 41.8155 57.946 45.0856C57.946 49.9439 54.24 52.5599 49.226 52.5599C46.5788 52.5599 44.2119 51.9994 42.9039 51.2519C42.717 51.1585 42.6547 51.0028 42.6547 50.7536V46.269C42.6547 45.9576 42.8105 45.8642 42.9973 46.0199C44.8971 47.2656 47.2328 47.8262 49.226 47.8262C51.624 47.8262 52.6206 46.8296 52.6206 45.4593C52.6206 44.3693 51.9354 43.4038 48.8522 41.7844C44.5233 39.729 42.7482 37.6112 42.7482 34.1232C42.7482 30.1991 45.8002 26.9603 51.1257 26.9603C53.7417 26.9603 55.6726 27.3651 56.6692 27.8011C56.9183 27.9568 56.9806 28.206 56.9806 28.3928V32.566C56.9806 32.8152 56.8249 32.9709 56.5446 32.8775C55.1743 32.0677 53.0877 31.5694 51.1257 31.5694ZM13.5359 0.800003C6.21725 0.800003 0.300049 6.7172 0.300049 14.0358V60.4392C0.300049 67.7578 6.21725 73.675 13.5359 73.675H61.8078C69.1264 73.675 75.0436 67.7578 75.0436 60.4392V14.0358C75.0436 6.7172 69.1264 0.800003 61.8078 0.800003H13.5359ZM14.7193 3.91432H60.5932C63.5915 3.91432 66.4669 5.10537 68.587 7.22547C70.7071 9.34556 71.8982 12.221 71.8982 15.2193V59.2246C71.9047 60.7098 71.6181 62.1818 71.0546 63.5561C70.4911 64.9303 69.6619 66.1799 68.6146 67.233C67.5672 68.2861 66.3223 69.1222 64.9511 69.6932C63.58 70.2643 62.1096 70.5591 60.6244 70.5607H14.7193C8.4907 70.5607 3.41436 65.4843 3.41436 59.2557V15.2193C3.41436 8.99065 8.4907 3.91432 14.7193 3.91432Z" fill="#0253DB"/>
</svg>
