<svg width="75" height="74" viewBox="0 0 75 74" fill="none" xmlns="http://www.w3.org/2000/svg">
<path d="M61.7328 0.800003H13.4609C6.1423 0.800003 0.225098 6.7172 0.225098 14.0358V60.4392C0.225098 67.7578 6.1423 73.675 13.4609 73.675H61.7328C69.0515 73.675 74.9687 67.7578 74.9687 60.4392V14.0358C74.9687 6.7172 69.0515 0.800003 61.7328 0.800003ZM71.8232 59.2246C71.8302 60.71 71.5438 62.1821 70.9805 63.5566C70.4171 64.931 69.588 66.1807 68.5405 67.2339C67.4931 68.2871 66.248 69.1232 64.8767 69.6941C63.5054 70.265 62.0348 70.5595 60.5494 70.5607H14.6444C8.41575 70.5607 3.33941 65.4843 3.33941 59.2557V15.2193C3.33941 8.99065 8.41575 3.91432 14.6444 3.91432H60.5183C63.5165 3.91432 66.392 5.10537 68.5121 7.22547C70.6322 9.34556 71.8232 12.221 71.8232 15.2193V59.2246ZM29.78 34.9018L38.5 51.6568C38.6558 51.9059 38.5623 52.1551 38.3132 52.1551H32.8943C32.5517 52.1551 32.396 52.0616 32.2403 51.7502C30.2471 47.6393 28.2228 43.5284 26.1362 39.1061H26.0739C24.2053 43.2793 22.1499 47.6705 20.1567 51.7814C20.001 52.0305 19.8453 52.1239 19.5961 52.1239H14.4575C14.1461 52.1239 14.1149 51.8748 14.2707 51.6879L22.8039 35.4312L14.551 18.9876C14.3641 18.7385 14.551 18.5516 14.7378 18.5516H20.0944C20.4059 18.5516 20.5304 18.6139 20.655 18.8942C22.617 23.0051 24.6102 27.2405 26.4788 31.3826H26.5411C28.3474 27.2717 30.3405 23.0051 32.2714 18.9253C32.4271 18.6762 32.5206 18.5205 32.832 18.5205H37.846C38.0952 18.5205 38.1886 18.7073 38.0329 18.9565L29.78 34.9018ZM40.0261 39.9781C40.0261 32.7217 44.8532 27.0537 52.5145 27.0537C53.1685 27.0537 53.511 27.0537 54.1339 27.116V18.863C54.1339 18.6762 54.2896 18.5516 54.4453 18.5516H59.366C59.6151 18.5516 59.6774 18.645 59.6774 18.8007V47.3902C59.6774 48.231 59.6774 49.2899 59.8331 50.4422C59.8331 50.6291 59.7708 50.6913 59.584 50.7848C56.9679 52.0305 54.2273 52.5911 51.6113 52.5911C44.8532 52.6222 40.0261 48.449 40.0261 39.9781ZM54.1339 32.0054C53.6979 31.8186 53.075 31.694 52.3276 31.694C48.4036 31.694 45.663 34.7149 45.663 39.729C45.663 45.4593 48.4659 47.7639 51.985 47.7639C52.7325 47.7639 53.5422 47.6705 54.1339 47.4213V32.0054Z" fill="#FF29C3"/>
</svg>
